<?xml version="1.0" encoding="utf-8"?>
<!-- Generator: Adobe Illustrator 24.3.0, SVG Export Plug-In . SVG Version: 6.00 Build 0)  -->
<svg version="1.1" id="Ebene_1" xmlns="http://www.w3.org/2000/svg" xmlns:xlink="http://www.w3.org/1999/xlink" x="0px" y="0px"
	 viewBox="0 0 679.37 182.35" style="enable-background:new 0 0 679.37 182.35;" xml:space="preserve">
<g>
	<path d="M3.34,4.7h3.48v110.15l46.26-80.24l3.01,1.74l-24,41.63l77,98.57l-2.67,2.2L30.24,81.23L6.58,122.16l-3.25,5.68v-6.49V4.7z
		"/>
	<path d="M83.8,4.23h3.48v115.95H83.8V4.23z"/>
	<path d="M187.13,54.66c-3.81-6.57-8.93-11.81-15.34-15.74c-2.34,0-5.23,0-7.76,0c1.73,0.71,3.42,1.54,5.07,2.52
		c6.34,3.63,11.34,8.62,15.02,14.96c3.67,6.34,5.51,13.24,5.51,20.7c0,7.46-1.84,14.34-5.51,20.64c-3.67,6.3-8.66,11.29-14.96,14.96
		c-6.3,3.67-13.18,5.51-20.64,5.51c-7.46,0-14.36-1.84-20.7-5.51c-6.34-3.67-11.34-8.66-15.02-14.96
		c-3.67-6.3-5.51-13.18-5.51-20.64c0-7.46,1.84-14.36,5.51-20.7c3.67-6.34,8.68-11.34,15.02-15.02c6.34-3.67,13.24-5.51,20.7-5.51
		c0.04,0,35.51,0,35.56,0c0.46-1.06,0.8-2.07,1.61-3.48c-0.04,0-37.12,0-37.17,0c-8.08,0-15.56,2.01-22.44,6.03
		c-6.88,3.94-12.31,9.35-16.29,16.23c-3.98,6.88-5.97,14.36-5.97,22.44c0,8.08,1.99,15.54,5.97,22.38
		c3.98,6.84,9.41,12.25,16.29,16.23c6.88,3.98,14.36,5.97,22.44,5.97c8.08,0,15.54-1.99,22.38-5.97
		c6.84-3.98,12.25-9.39,16.23-16.23c3.98-6.84,5.97-14.3,5.97-22.38C193.1,69.02,191.11,61.54,187.13,54.66z"/>
	<g>
		<path d="M141.07,64.29c2.27-1.33,4.74-1.99,7.41-1.99c2.67,0,5.13,0.66,7.39,1.97c2.26,1.31,4.04,3.11,5.36,5.38
			c1.31,2.27,1.97,4.74,1.97,7.41c0,2.67-0.66,5.13-1.97,7.39c-1.31,2.26-3.1,4.04-5.36,5.36c-2.26,1.31-4.72,1.97-7.39,1.97
			c-2.67,0-5.14-0.66-7.41-1.97c-2.27-1.31-4.06-3.1-5.38-5.36c-1.31-2.26-1.97-4.72-1.97-7.39c0-2.67,0.66-5.14,1.97-7.41
			C137.01,67.38,138.8,65.59,141.07,64.29z M155.27,65.29c-2.07-1.22-4.33-1.84-6.79-1.84c-2.46,0-4.74,0.61-6.83,1.82
			c-2.09,1.21-3.74,2.86-4.96,4.96c-1.21,2.09-1.82,4.37-1.82,6.83c0,2.46,0.61,4.73,1.82,6.81c1.21,2.08,2.86,3.73,4.96,4.94
			c2.09,1.21,4.37,1.82,6.83,1.82c2.46,0,4.73-0.61,6.81-1.82c2.08-1.21,3.73-2.86,4.94-4.94c1.21-2.08,1.82-4.35,1.82-6.81
			c0-2.46-0.61-4.74-1.82-6.83C159.02,68.13,157.36,66.49,155.27,65.29z"/>
	</g>
	<path d="M211.94,150.33h-3.48V33.92h3.48v27.94c4.02-9.89,10.51-17.89,19.48-24h0.12c7.81-4.56,16.23-6.42,25.28-5.57
		c6.18,0.62,12.02,2.55,17.51,5.8c5.49,3.25,10.05,7.42,13.68,12.52c3.48,5.1,5.84,10.8,7.07,17.1c1.24,6.3,1.2,12.47-0.12,18.49
		c-2.09,9.51-6.69,17.51-13.8,24c-7.19,6.65-15.58,10.44-25.16,11.36c-1.47,0.15-2.94,0.23-4.41,0.23c-6.57,0-12.79-1.43-18.67-4.29
		c-7.34-3.48-13.22-8.66-17.62-15.54c-1.24-1.93-2.36-4.1-3.36-6.49V150.33z M251.6,118.33c1.39,0,2.74-0.08,4.06-0.23
		c8.81-0.85,16.54-4.33,23.19-10.44c6.57-6.03,10.82-13.41,12.75-22.15c1.16-5.57,1.18-11.27,0.06-17.1
		c-1.12-5.84-3.31-11.07-6.55-15.71c-3.32-4.71-7.52-8.58-12.58-11.6c-5.06-3.01-10.42-4.79-16.06-5.33
		c-8.27-0.77-16,0.89-23.19,4.99c-6.57,4.48-11.79,10.24-15.65,17.28c-3.87,7.03-5.76,14.19-5.68,21.45v0.12
		c0.15,7.42,2.26,14.26,6.32,20.52c4.06,6.26,9.45,11.02,16.18,14.26C239.85,117.02,245.57,118.33,251.6,118.33z"/>
	<path d="M349.78,32.29c6.57,0,12.79,1.43,18.67,4.29c7.27,3.48,13.1,8.66,17.51,15.54c1.31,1.93,2.47,4.1,3.48,6.49V34.38h3.48
		v85.8h-3.48V92.24c-4.02,9.9-10.51,17.9-19.48,24h-0.12c-7.81,4.56-16.23,6.42-25.28,5.57c-6.19-0.54-12.04-2.45-17.57-5.74
		c-5.53-3.28-10.07-7.48-13.63-12.58c-3.56-5.1-5.93-10.8-7.13-17.1c-1.2-6.3-1.14-12.47,0.17-18.49c2.01-9.51,6.57-17.51,13.68-24
		c7.19-6.57,15.61-10.36,25.28-11.36C346.76,32.37,348.23,32.29,349.78,32.29z M349.78,35.77c-1.39,0-2.74,0.08-4.06,0.23
		c-8.89,0.93-16.66,4.41-23.31,10.44c-6.49,6.03-10.71,13.45-12.64,22.26c-1.24,5.56-1.28,11.25-0.12,17.04
		c1.16,5.8,3.36,11.06,6.61,15.77c3.25,4.64,7.42,8.46,12.52,11.48s10.47,4.79,16.12,5.33c8.27,0.85,15.96-0.81,23.07-4.99
		c6.57-4.48,11.79-10.24,15.65-17.28c3.86-7.03,5.76-14.18,5.68-21.45c-0.16-7.5-2.24-14.38-6.26-20.64
		c-4.02-6.26-9.39-11.02-16.12-14.26C361.53,37.09,355.81,35.77,349.78,35.77z"/>
	<path d="M413.32,178.7h-3.48V33.92h3.48v27.94c4.02-9.89,10.51-17.89,19.48-24h0.12c7.81-4.56,16.23-6.42,25.28-5.57
		c6.18,0.62,12.02,2.55,17.51,5.8c5.49,3.25,10.05,7.42,13.68,12.52c3.48,5.1,5.84,10.8,7.07,17.1c1.23,6.3,1.2,12.47-0.12,18.49
		c-2.09,9.51-6.69,17.51-13.8,24c-7.19,6.65-15.58,10.44-25.16,11.36c-1.47,0.15-2.94,0.23-4.41,0.23c-6.57,0-12.79-1.43-18.67-4.29
		c-7.34-3.48-13.22-8.66-17.63-15.54c-1.24-1.93-2.36-4.1-3.36-6.49V178.7z M452.97,118.33c1.39,0,2.74-0.08,4.06-0.23
		c8.81-0.85,16.54-4.33,23.19-10.44c6.57-6.03,10.82-13.41,12.75-22.15c1.16-5.57,1.18-11.27,0.06-17.1
		c-1.12-5.84-3.3-11.07-6.55-15.71c-3.32-4.71-7.52-8.58-12.58-11.6c-5.06-3.01-10.42-4.79-16.06-5.33
		c-8.27-0.77-16,0.89-23.19,4.99C428.08,45.24,422.86,51,419,58.04c-3.87,7.03-5.76,14.19-5.68,21.45v0.12
		c0.15,7.42,2.26,14.26,6.32,20.52c4.06,6.26,9.45,11.02,16.18,14.26C441.22,117.02,446.94,118.33,452.97,118.33z"/>
	<path d="M515.59,5.62c1.16-1.16,2.55-1.74,4.17-1.74c1.62,0,3.01,0.58,4.17,1.74c1.16,1.16,1.74,2.55,1.74,4.17
		s-0.58,3.01-1.74,4.17c-1.16,1.16-2.55,1.74-4.17,1.74c-1.62,0-3.01-0.58-4.17-1.74c-1.16-1.16-1.74-2.55-1.74-4.17
		S514.43,6.78,515.59,5.62z M518.02,34.38h3.48v85.8h-3.48V34.38z"/>
	<path d="M586.66,32.29c9.2,0,17.55,2.57,25.05,7.71c7.5,5.14,12.95,11.81,16.35,20c1.62,3.94,2.63,8.04,3.01,12.29
		c0.15,1,0.1,1.6-0.17,1.8c-0.27,0.19-1.03,0.29-2.26,0.29c-0.39,0-0.66,0-0.81,0h-82.21c-0.08,0.85-0.12,1.7-0.12,2.55
		c0,3.4,0.42,6.76,1.28,10.09v0.35c2.4,8.97,7.29,16.33,14.67,22.09c7.38,5.76,15.79,8.64,25.22,8.64c7.57,0,14.53-1.87,20.87-5.62
		c6.34-3.75,11.29-8.75,14.84-15.02l1.97,3.36c-4.02,6.42-9.35,11.48-16,15.19c-6.65,3.71-13.88,5.56-21.68,5.56
		c-10.28,0-19.44-3.17-27.48-9.51c-8.04-6.34-13.3-14.38-15.77-24.12c0-0.08-0.02-0.15-0.06-0.23c-0.04-0.08-0.06-0.15-0.06-0.23
		c-0.85-3.4-1.28-6.92-1.28-10.55c0-8.04,1.99-15.5,5.97-22.38c3.98-6.88,9.41-12.31,16.29-16.29
		C571.16,34.28,578.62,32.29,586.66,32.29z M586.66,35.77c-10.28,0-19.27,3.36-26.96,10.09c-7.69,6.72-12.27,15.07-13.74,25.05
		h81.51c-0.62-3.79-1.7-7.42-3.25-10.9c-3.25-7.27-8.25-13.12-15.02-17.57C602.45,38,594.93,35.77,586.66,35.77z"/>
	<path d="M673.39,32.76c0.15,0,0.31,0,0.46,0c0.85,0,1.66,0.08,2.43,0.23l-0.46,3.36c-5.72-0.62-10.9,0.77-15.54,4.17
		c-4.64,3.4-7.5,7.96-8.58,13.68c-0.16,0.93-0.27,1.85-0.35,2.78v63.19h-3.48V56.88V34.61h3.48v10.67c1.78-3.01,4.06-5.53,6.84-7.54
		C662.69,34.42,667.75,32.76,673.39,32.76z"/>
	<path d="M148.46,114.84c-20.84,0-37.8-16.96-37.8-37.8s16.96-37.8,37.8-37.8s37.8,16.96,37.8,37.8S169.3,114.84,148.46,114.84z
		 M148.46,39.48c-20.71,0-37.56,16.85-37.56,37.56c0,20.71,16.85,37.56,37.56,37.56c20.71,0,37.56-16.85,37.56-37.56
		C186.02,56.33,169.17,39.48,148.46,39.48z"/>
	<path d="M148.46,110.28c-18.33,0-33.24-14.91-33.24-33.24s14.91-33.24,33.24-33.24s33.24,14.91,33.24,33.24
		S166.79,110.28,148.46,110.28z M148.46,44.04c-18.19,0-33,14.8-33,33s14.8,33,33,33s33-14.8,33-33S166.65,44.04,148.46,44.04z"/>
	<path d="M148.46,105.71c-15.81,0-28.67-12.86-28.67-28.67s12.86-28.67,28.67-28.67s28.67,12.86,28.67,28.67
		S164.27,105.71,148.46,105.71z M148.46,48.61c-15.68,0-28.43,12.75-28.43,28.43c0,15.68,12.75,28.43,28.43,28.43
		c15.68,0,28.43-12.75,28.43-28.43C176.89,61.36,164.14,48.61,148.46,48.61z"/>
	<path d="M148.46,101.15c-13.29,0-24.11-10.82-24.11-24.11s10.81-24.11,24.11-24.11c13.29,0,24.11,10.81,24.11,24.11
		S161.75,101.15,148.46,101.15z M148.46,53.17c-13.16,0-23.87,10.71-23.87,23.87c0,13.16,10.71,23.87,23.87,23.87
		s23.87-10.71,23.87-23.87C172.32,63.88,161.62,53.17,148.46,53.17z"/>
	<path d="M148.46,96.58c-10.78,0-19.54-8.77-19.54-19.54s8.77-19.54,19.54-19.54S168,66.26,168,77.04S159.23,96.58,148.46,96.58z
		 M148.46,57.74c-10.64,0-19.3,8.66-19.3,19.3s8.66,19.3,19.3,19.3s19.3-8.66,19.3-19.3S159.1,57.74,148.46,57.74z"/>
	<g>
		<path d="M435.89,151.37c0-0.27,0.07-0.48,0.22-0.64c0.14-0.16,0.35-0.24,0.61-0.24h18.65c0.28,0,0.49,0.08,0.64,0.25
			c0.15,0.16,0.23,0.38,0.23,0.66v4.7c0,0.21-0.08,0.42-0.23,0.61c-0.15,0.2-0.37,0.29-0.66,0.29h-12.18v4.71h9.4
			c0.24,0,0.44,0.06,0.59,0.17c0.16,0.11,0.23,0.3,0.23,0.57v4.1c0,0.18-0.07,0.35-0.21,0.51c-0.14,0.17-0.34,0.25-0.6,0.25h-9.42
			v4.86h12.63c0.56,0,0.85,0.29,0.85,0.87v4.77c0,0.13-0.05,0.24-0.15,0.34c-0.05,0.35-0.31,0.53-0.77,0.53h-19
			c-0.25,0-0.45-0.07-0.6-0.2c-0.15-0.13-0.22-0.34-0.22-0.62V151.37z"/>
		<path d="M458.54,178.2c0.1-0.19,0.2-0.38,0.31-0.58c0.11-0.2,0.23-0.39,0.37-0.6l8.46-12.76c-1.44-2.19-2.87-4.36-4.28-6.49
			c-1.41-2.14-2.84-4.3-4.28-6.49c-0.08-0.1-0.14-0.2-0.18-0.28c-0.04-0.09-0.07-0.18-0.08-0.29c0.03-0.1,0.1-0.15,0.22-0.14
			c0.12,0.01,0.24-0.02,0.37-0.09h6.54c0.46,0,0.83,0.24,1.09,0.72l4.6,6.99l4.66-6.99c0.26-0.48,0.63-0.72,1.09-0.72h5.9
			c0.1,0,0.22,0,0.36,0c0.14,0,0.27,0,0.39,0.01c0.12,0.01,0.22,0.03,0.31,0.07c0.09,0.04,0.13,0.09,0.13,0.17
			c0,0.15-0.07,0.32-0.21,0.49l-8.65,13.05l8.81,13.29c0.13,0.18,0.22,0.34,0.29,0.48c0.07,0.15,0.1,0.27,0.08,0.37
			c0,0.19-0.11,0.29-0.34,0.29h-6.73c-0.21,0-0.41-0.06-0.58-0.19c-0.18-0.13-0.31-0.3-0.41-0.51l-5.11-7.65l-5.06,7.65
			c-0.1,0.21-0.24,0.39-0.41,0.51c-0.17,0.13-0.37,0.19-0.58,0.19h-6.41h-0.34c-0.1,0-0.19-0.03-0.26-0.09
			c-0.08-0.06-0.11-0.14-0.11-0.24C458.5,178.31,458.51,178.25,458.54,178.2z"/>
		<path d="M508.31,152.55c0.21,0.13,0.37,0.29,0.47,0.49s0.08,0.44-0.06,0.72l-3.18,4.56c-0.14,0.22-0.28,0.34-0.44,0.37
			c-0.16,0.03-0.35-0.02-0.57-0.16c-0.61-0.47-1.29-0.83-2.03-1.08s-1.52-0.38-2.35-0.38c-1.03,0-1.97,0.2-2.84,0.59
			c-0.86,0.39-1.61,0.93-2.24,1.61c-0.63,0.68-1.12,1.48-1.47,2.39s-0.53,1.89-0.53,2.92c0,1.04,0.17,2.01,0.53,2.91
			c0.35,0.91,0.84,1.7,1.47,2.37c0.63,0.68,1.37,1.21,2.24,1.6c0.86,0.39,1.81,0.59,2.84,0.59c0.83,0,1.62-0.13,2.37-0.39
			c0.75-0.26,1.43-0.62,2.05-1.09c0.22-0.14,0.41-0.2,0.56-0.17c0.15,0.03,0.3,0.14,0.45,0.34l3.21,4.67
			c0.14,0.28,0.16,0.51,0.06,0.7c-0.1,0.19-0.26,0.35-0.47,0.48c-1.18,0.8-2.45,1.41-3.81,1.85c-1.36,0.44-2.79,0.66-4.3,0.66
			c-1.33,0-2.6-0.17-3.82-0.51s-2.37-0.83-3.43-1.46c-1.07-0.63-2.03-1.39-2.9-2.27c-0.87-0.88-1.62-1.86-2.25-2.93
			c-0.63-1.07-1.11-2.22-1.45-3.46c-0.34-1.23-0.51-2.52-0.51-3.86c0-1.34,0.17-2.63,0.51-3.86c0.34-1.23,0.82-2.39,1.45-3.48
			c0.63-1.08,1.37-2.07,2.25-2.95c0.87-0.89,1.84-1.64,2.9-2.27c1.06-0.63,2.21-1.11,3.43-1.46c1.22-0.35,2.5-0.52,3.82-0.52
			c1.5,0,2.92,0.21,4.26,0.64C505.88,151.14,507.13,151.75,508.31,152.55z"/>
		<path d="M513.57,151.33c0.01-0.22,0.09-0.41,0.23-0.58c0.14-0.17,0.33-0.26,0.57-0.26h5.58c0.19,0,0.38,0.08,0.58,0.24
			c0.2,0.16,0.3,0.36,0.3,0.6v9.02h9.34v-9.02c0-0.23,0.08-0.43,0.23-0.59c0.16-0.17,0.36-0.25,0.61-0.25h5.49
			c0.25,0,0.47,0.06,0.66,0.19c0.19,0.13,0.28,0.33,0.28,0.61v26.57c0,0.28-0.08,0.49-0.24,0.63c-0.16,0.14-0.37,0.21-0.64,0.21
			h-5.55c-0.25,0-0.45-0.07-0.61-0.21c-0.16-0.14-0.23-0.35-0.23-0.63v-10.79h-9.34v10.79c0,0.27-0.08,0.47-0.25,0.62
			c-0.17,0.15-0.4,0.22-0.69,0.22h-5.53c-0.53,0-0.8-0.25-0.81-0.74V151.33z"/>
		<path d="M551.6,151.24c0.01-0.08,0.05-0.16,0.12-0.25c0.07-0.09,0.15-0.17,0.25-0.25c0.1-0.08,0.21-0.14,0.32-0.18
			c0.11-0.04,0.22-0.07,0.32-0.07h4.81c0.21,0,0.39,0.07,0.54,0.2c0.15,0.13,0.26,0.25,0.34,0.35l0.47,1.08l9.87,25.71
			c0.1,0.25,0.08,0.46-0.06,0.62c-0.14,0.16-0.38,0.24-0.71,0.24h-5.4c-0.29,0-0.51-0.05-0.67-0.16c-0.16-0.11-0.28-0.29-0.37-0.54
			c-0.25-0.65-0.5-1.29-0.73-1.93c-0.24-0.64-0.48-1.28-0.71-1.93h-9.98c-0.24,0.65-0.48,1.29-0.72,1.93
			c-0.25,0.64-0.49,1.28-0.72,1.93c-0.16,0.47-0.48,0.7-0.96,0.7h-5.55c-0.24,0-0.44-0.06-0.59-0.19c-0.16-0.13-0.19-0.32-0.08-0.57
			L551.6,151.24z M555.02,159.37c-0.24,0.65-0.48,1.34-0.72,2.09c-0.25,0.75-0.49,1.5-0.73,2.26c-0.24,0.76-0.48,1.51-0.72,2.25
			c-0.24,0.74-0.49,1.43-0.72,2.08h5.77L555.02,159.37z"/>
		<path d="M572.46,151.33c0-0.23,0.07-0.42,0.21-0.59c0.14-0.16,0.35-0.25,0.62-0.25h6.15c0.17,0,0.36,0.04,0.55,0.13
			c0.19,0.09,0.35,0.24,0.49,0.46c1.59,2.6,3.17,5.15,4.74,7.67c1.57,2.52,3.15,5.08,4.76,7.67v-15.21c0.05-0.23,0.15-0.4,0.3-0.53
			c0.15-0.13,0.33-0.19,0.53-0.19h5.36c0.26,0,0.48,0.07,0.66,0.22c0.18,0.15,0.26,0.35,0.26,0.62v26.62c0,0.25-0.08,0.44-0.23,0.56
			c-0.15,0.12-0.36,0.18-0.62,0.18h-6c-0.16,0-0.31-0.06-0.43-0.17c-0.12-0.11-0.26-0.27-0.39-0.46c-1.67-2.78-3.31-5.54-4.94-8.26
			c-1.63-2.72-3.28-5.47-4.96-8.26v16.31c0,0.28-0.06,0.49-0.19,0.63c-0.12,0.14-0.35,0.21-0.68,0.21h-5.34
			c-0.29,0-0.5-0.08-0.63-0.24c-0.13-0.16-0.2-0.35-0.2-0.58V151.33z"/>
		<path d="M620.8,158.45c-0.64-0.46-1.32-0.81-2.05-1.06c-0.73-0.25-1.5-0.38-2.33-0.38c-1.04,0-1.99,0.2-2.86,0.6
			c-0.86,0.4-1.61,0.94-2.23,1.62c-0.62,0.68-1.11,1.48-1.46,2.4c-0.35,0.92-0.53,1.9-0.53,2.93c0,1.04,0.18,2.01,0.53,2.92
			c0.35,0.91,0.84,1.71,1.46,2.38c0.62,0.68,1.36,1.21,2.23,1.6c0.86,0.39,1.82,0.59,2.86,0.59c0.44,0,0.87-0.03,1.31-0.1
			c0.43-0.06,0.89-0.15,1.38-0.25v-4.98c0-0.24,0.07-0.44,0.21-0.6c0.14-0.16,0.34-0.24,0.62-0.24h5.11c0.19,0,0.39,0.08,0.6,0.23
			c0.21,0.15,0.32,0.35,0.32,0.61v9.19c0,0.34-0.18,0.62-0.54,0.84c-0.59,0.41-1.24,0.75-1.95,1.04c-0.71,0.29-1.46,0.53-2.24,0.72
			c-0.78,0.19-1.56,0.33-2.36,0.43c-0.8,0.1-1.57,0.14-2.32,0.14c-1.33,0-2.6-0.17-3.82-0.51c-1.22-0.34-2.37-0.83-3.43-1.46
			c-1.06-0.63-2.03-1.39-2.9-2.27c-0.87-0.88-1.62-1.86-2.25-2.93c-0.63-1.07-1.11-2.22-1.45-3.46c-0.34-1.23-0.51-2.52-0.51-3.86
			c0-1.34,0.17-2.63,0.51-3.86c0.34-1.23,0.82-2.39,1.45-3.48c0.63-1.08,1.37-2.07,2.25-2.95c0.87-0.89,1.84-1.64,2.9-2.27
			c1.07-0.63,2.21-1.11,3.43-1.46c1.22-0.35,2.5-0.52,3.82-0.52c1.5,0,2.92,0.21,4.26,0.64c1.33,0.42,2.59,1.04,3.77,1.83
			c0.21,0.13,0.38,0.29,0.49,0.5c0.11,0.21,0.09,0.45-0.08,0.71l-3.04,4.44c-0.16,0.2-0.33,0.34-0.49,0.41
			C621.3,158.68,621.08,158.63,620.8,158.45z"/>
		<path d="M631.42,151.37c0-0.27,0.07-0.48,0.22-0.64c0.14-0.16,0.35-0.24,0.61-0.24h18.65c0.28,0,0.49,0.08,0.64,0.25
			c0.15,0.16,0.23,0.38,0.23,0.66v4.7c0,0.21-0.08,0.42-0.23,0.61c-0.15,0.2-0.37,0.29-0.66,0.29H638.7v4.71h9.4
			c0.24,0,0.44,0.06,0.59,0.17c0.16,0.11,0.23,0.3,0.23,0.57v4.1c0,0.18-0.07,0.35-0.21,0.51c-0.14,0.17-0.34,0.25-0.6,0.25h-9.42
			v4.86h12.63c0.56,0,0.85,0.29,0.85,0.87v4.77c0,0.13-0.05,0.24-0.15,0.34c-0.05,0.35-0.31,0.53-0.77,0.53h-19
			c-0.25,0-0.45-0.07-0.6-0.2c-0.15-0.13-0.22-0.34-0.22-0.62V151.37z"/>
	</g>
</g>
</svg>
